# Blender v2.93.6 OBJ File: 'skybox.blend'
# www.blender.org
mtllib skybox.mtl
o Cube
v 15.785830 14.897548 14.897548
v -14.009268 14.897550 14.897550
v 15.785827 14.897548 -14.897550
v -14.009271 14.897550 -14.897548
v 15.785827 -14.897550 14.897548
v -14.009271 -14.897548 14.897550
v 15.785824 -14.897550 -14.897550
v -14.009274 -14.897548 -14.897548
vt 0.499654 0.666559
vt 0.250321 0.667230
vt 0.250199 0.999736
vt 0.499879 0.999937
vt 0.250216 0.333816
vt 0.000241 0.333853
vt 0.000841 0.666741
vt 0.999738 0.333681
vt 0.751064 0.333750
vt 0.751064 0.666722
vt 0.999699 0.666331
vt 0.499725 0.000247
vt 0.250219 -0.000061
vt 0.499611 0.334068
vn -0.5773 -0.5773 -0.5773
vn -0.5773 -0.5773 0.5773
vn -0.5773 0.5773 0.5773
vn -0.5773 0.5773 -0.5773
vn 0.5773 -0.5773 0.5773
vn 0.5773 0.5773 0.5773
vn 0.5773 0.5773 -0.5773
vn 0.5773 -0.5773 -0.5773
usemtl Material
s 1
f 1/1/1 3/2/2 7/3/3 5/4/4
f 4/5/5 8/6/6 7/7/3 3/2/2
f 8/8/6 6/9/7 5/10/4 7/11/3
f 6/12/7 8/13/6 4/5/5 2/14/8
f 2/14/8 4/5/5 3/2/2 1/1/1
f 6/9/7 2/14/8 1/1/1 5/10/4
