# Blender v2.93.6 OBJ File: 'skybox.blend'
# www.blender.org
mtllib skybox.mtl
o Cube
v 14.897549 15.785827 -14.897549
v 14.897549 -14.009271 -14.897549
v 14.897549 15.785827 14.897549
v 14.897549 -14.009271 14.897549
v -14.897549 15.785827 -14.897549
v -14.897549 -14.009271 -14.897549
v -14.897549 15.785827 14.897549
v -14.897549 -14.009271 14.897549
vt 0.498739 0.664281
vt 0.255448 0.666741
vt 0.255448 0.995016
vt 0.496034 0.995016
vt 0.255448 0.338467
vt -0.002066 0.338467
vt -0.002066 0.666741
vt 1.002160 0.336006
vt 0.751064 0.336006
vt 0.751064 0.664281
vt 1.002160 0.664281
vt 0.497264 0.010193
vt 0.255448 0.010193
vt 0.498739 0.336006
vn -0.5773 -0.5773 0.5773
vn -0.5773 -0.5773 -0.5773
vn 0.5773 -0.5773 -0.5773
vn 0.5773 -0.5773 0.5773
vn -0.5773 0.5773 -0.5773
vn 0.5773 0.5773 -0.5773
vn 0.5773 0.5773 0.5773
vn -0.5773 0.5773 0.5773
usemtl Material
s 1
f 1/1/1 3/2/2 7/3/3 5/4/4
f 4/5/5 8/6/6 7/7/3 3/2/2
f 8/8/6 6/9/7 5/10/4 7/11/3
f 6/12/7 8/13/6 4/5/5 2/14/8
f 2/14/8 4/5/5 3/2/2 1/1/1
f 6/9/7 2/14/8 1/1/1 5/10/4
