# Blender v2.93.6 OBJ File: 'sol.blend'
# www.blender.org
mtllib sol.mtl
o Cube
v 3.000000 1.000000 -1.000000
v 3.000000 -1.000000 -1.000000
v 3.000000 1.000000 1.000000
v 3.000000 -1.000000 1.000000
v -3.000000 1.000000 -1.000000
v -3.000000 -1.000000 -1.000000
v -3.000000 1.000000 1.000000
v -3.000000 -1.000000 1.000000
vt 0.989754 0.010246
vt 0.989754 0.698772
vt 0.760246 0.698772
vt 0.760246 0.010246
vt 0.239754 0.698772
vt 0.010246 0.698772
vt 0.010246 0.010246
vt 0.239754 0.010246
vt 0.739754 0.719263
vt 0.739754 0.948772
vt 0.510246 0.948772
vt 0.510246 0.719263
vt 0.739754 0.010246
vt 0.739754 0.698772
vt 0.510246 0.698772
vt 0.510246 0.010246
vt 0.239754 0.719263
vt 0.239754 0.948772
vt 0.010246 0.948772
vt 0.010246 0.719263
vt 0.489754 0.698772
vt 0.260246 0.698772
vt 0.260246 0.010246
vt 0.489754 0.010246
vn 0.0000 1.0000 0.0000
vn 0.0000 0.0000 1.0000
vn -1.0000 0.0000 0.0000
vn 0.0000 -1.0000 0.0000
vn 1.0000 0.0000 0.0000
vn 0.0000 0.0000 -1.0000
usemtl Asphalt_cracked
s off
f 1/1/1 5/2/1 7/3/1 3/4/1
f 4/5/2 3/6/2 7/7/2 8/8/2
f 8/9/3 7/10/3 5/11/3 6/12/3
f 6/13/4 2/14/4 4/15/4 8/16/4
f 2/17/5 1/18/5 3/19/5 4/20/5
f 6/21/6 5/22/6 1/23/6 2/24/6
